<?xml version="1.0" encoding="UTF-8"?>
<!DOCTYPE svg PUBLIC "-//W3C//DTD SVG 1.1//EN" "http://www.w3.org/Graphics/SVG/1.1/DTD/svg11.dtd">
<!-- Creator: CorelDRAW -->
<svg xmlns="http://www.w3.org/2000/svg" xml:space="preserve" width="6.82666in" height="6.82666in" style="shape-rendering:geometricPrecision; text-rendering:geometricPrecision; image-rendering:optimizeQuality; fill-rule:evenodd; clip-rule:evenodd"
viewBox="0 0 6.82666 6.82666"
 xmlns:xlink="http://www.w3.org/1999/xlink">
 <defs>
  <style type="text/css">
   <![CDATA[
    .fil3 {fill:none}
    .fil1 {fill:#212121}
    .fil0 {fill:#212121;fill-rule:nonzero}
    .fil2 {fill:#66BB6A;fill-rule:nonzero}
   ]]>
  </style>
 </defs>
 <g id="Layer_x0020_1">
  <metadata id="CorelCorpID_0Corel-Layer"/>
  <path class="fil0" d="M2.02894 5.85827c-0.00105906,-0.0997244 -0.00451575,-0.194701 -0.0145315,-0.293654 -0.0101417,-0.100197 -0.0271535,-0.204205 -0.0555118,-0.32122 -0.0722756,-0.298232 -0.155728,-0.576587 -0.233614,-0.836421 -0.153224,-0.51113 -0.285287,-0.951673 -0.285287,-1.39243 0,-0.317772 0.0509094,-0.56678 0.143413,-0.770528 0.0940709,-0.207205 0.229677,-0.36524 0.397587,-0.499024 0.0691693,-0.0551142 0.13276,-0.0901496 0.188559,-0.120886 0.0796496,-0.043878 0.135409,-0.0745945 0.135409,-0.164634 0,-0.0504134 0.00756693,-0.105217 0.022,-0.160154 0.0255157,-0.0971575 0.0738425,-0.195449 0.141008,-0.270516 0.074622,-0.0833937 0.171685,-0.139067 0.287441,-0.139067 0.0299961,0 0.0614961,0.00406299 0.0944331,0.0127126 0.165886,0.0435709 0.36174,0.0636575 0.555732,0.0634961 0.205717,-0.000173228 0.407984,-0.0229449 0.569402,-0.0644764 0.0330433,-0.0085 0.0641496,-0.0124921 0.0933346,-0.0124921 0.11711,0 0.215232,0.0563031 0.290488,0.140512 0.067748,0.0758071 0.116374,0.175488 0.141732,0.274039 0.0138858,0.0539646 0.0211614,0.107244 0.0211614,0.155945 0,0.0901063 0.0527835,0.118941 0.129976,0.16111 0.0547913,0.0299252 0.117516,0.0641969 0.184555,0.116858 0.170323,0.133795 0.308138,0.292087 0.404094,0.500677 0.0943622,0.205118 0.146343,0.455886 0.146343,0.776425 0,0.440768 -0.132067,0.881319 -0.285291,1.39246 -0.077252,0.257713 -0.159969,0.533638 -0.231756,0.828768 -0.0278228,0.114413 -0.0452913,0.220449 -0.0560472,0.323531 -0.0109291,0.104783 -0.015,0.2055 -0.0159409,0.308197 -0.000456693,0.0584016 -0.0479528,0.105421 -0.106252,0.105413l0 0.00042126 -2.55609 0c-0.0589094,0 -0.106669,-0.0477598 -0.106669,-0.106669 0,-0.00282283 0.000110236,-0.00562205 0.000326772,-0.00838976zm0.197138 -0.314488c0.00735827,0.0726929 0.0113661,0.14378 0.0135039,0.216209l2.34767 0c0.00238976,-0.0741496 0.00686614,-0.147701 0.0146535,-0.222362 0.0116575,-0.111689 0.0306732,-0.226953 0.0610472,-0.351862 0.0749882,-0.308291 0.157343,-0.583016 0.23426,-0.839602 0.148299,-0.494705 0.276118,-0.921091 0.276118,-1.33162 0,-0.289177 -0.044874,-0.511024 -0.126335,-0.688094 -0.0798622,-0.173602 -0.19685,-0.307146 -0.342433,-0.421504 -0.0554331,-0.0435433 -0.108343,-0.0724488 -0.154555,-0.0976929 -0.14352,-0.0784055 -0.241646,-0.132012 -0.241646,-0.34778 0,-0.0332756 -0.00469685,-0.0686142 -0.0136575,-0.103441 -0.0174488,-0.0678071 -0.0498465,-0.135213 -0.0942283,-0.184874 -0.0368701,-0.0412559 -0.0820039,-0.0688425 -0.132157,-0.0688425 -0.0139764,0 -0.0276417,0.00159449 -0.0408307,0.00498819 -0.17813,0.0458346 -0.399035,0.0709606 -0.621906,0.0711457 -0.211768,0.000173228 -0.426594,-0.0220197 -0.609898,-0.0701654 -0.0134921,-0.00354331 -0.0269528,-0.00520866 -0.0402677,-0.00520866 -0.0488543,0 -0.0929449,0.0269803 -0.12911,0.0673976 -0.043622,0.048752 -0.0757638,0.115465 -0.0935039,0.183012 -0.00950787,0.0361929 -0.0144961,0.0724646 -0.0144961,0.105988 0,0.21565 -0.101398,0.271508 -0.246244,0.351303 -0.048378,0.0266496 -0.103508,0.0570236 -0.158559,0.100886 -0.142657,0.113665 -0.257358,0.246803 -0.335925,0.419858 -0.0801378,0.176512 -0.12424,0.396894 -0.12424,0.683024 0,0.410528 0.127815,0.836902 0.276114,1.3316 0.0775787,0.258811 0.160701,0.536063 0.236118,0.847256 0.0308819,0.127433 0.0494291,0.240909 0.0605118,0.350386z"/>
  <g id="_454424096">
   <ellipse id="_454423976" class="fil1" transform="matrix(1.14032 -0.468184 -0.553998 -1.52084 2.81799 1.5948)" rx="0.117709" ry="0.126039"/>
   <ellipse id="_454424144" class="fil1" transform="matrix(-1.14032 -0.468184 0.553998 -1.52084 4.00867 1.5948)" rx="0.117709" ry="0.126039"/>
  </g>
  <path class="fil0" d="M2.35474 1.75374c-0.023815,-0.0171417 -0.0292283,-0.0503504 -0.0120866,-0.0741654 0.0171417,-0.023815 0.0503504,-0.0292283 0.0741654,-0.0120866 0.0602441,0.0435 0.25926,0.179728 0.419976,0.28448 0.101465,0.0661339 0.185193,0.11863 0.201843,0.1235 0.035437,0.0103661 0.0949409,0.0179449 0.154417,0.0192323 0.0496299,0.0010748 0.0978622,-0.00229134 0.129209,-0.0122165 0.0179685,-0.00569291 0.0243031,-0.0324173 0.030811,-0.0598898 0.00242126,-0.0102165 0.00485039,-0.0204764 0.00942126,-0.0354409 0.00851181,-0.0280748 0.0381772,-0.0439291 0.066252,-0.0354173 0.0177126,0.00537008 0.0305551,0.0191575 0.0354921,0.0356575 0.00452362,0.0148346 0.00693701,0.0250394 0.00934646,0.0352008 0.00650787,0.0274724 0.0128425,0.0541969 0.030811,0.0598898 0.0313465,0.0099252 0.0795787,0.0132913 0.129209,0.0122165 0.0594764,-0.0012874 0.11898,-0.00886614 0.154417,-0.0192323 0.0166496,-0.00487008 0.100378,-0.0573661 0.201843,-0.1235 0.160717,-0.104752 0.359732,-0.24098 0.419976,-0.28448 0.023815,-0.0171417 0.0570236,-0.0117283 0.0741654,0.0120866 0.0171417,0.023815 0.0117283,0.0570236 -0.0120866,0.0741654 -0.0613543,0.0443031 -0.262618,0.182114 -0.424142,0.287394 -0.108748,0.0708819 -0.202051,0.128185 -0.230173,0.136413 -0.0434173,0.0127008 -0.113563,0.0219252 -0.181913,0.0234055 -0.0604173,0.00130709 -0.120925,-0.00335433 -0.163382,-0.0167992 -0.0263504,-0.00834646 -0.045126,-0.0205394 -0.0589803,-0.0353071 -0.0138543,0.0147677 -0.0326299,0.0269606 -0.0589803,0.0353071 -0.0424567,0.0134449 -0.102965,0.0181063 -0.163382,0.0167992 -0.0683504,-0.00148031 -0.138496,-0.0107047 -0.181913,-0.0234055 -0.028122,-0.00822835 -0.121425,-0.0655315 -0.230173,-0.136413 -0.161524,-0.10528 -0.362787,-0.243091 -0.424142,-0.287394z"/>
  <path class="fil0" d="M4.52823 1.63611c0.0300276,-0.0322717 0.0805394,-0.0340906 0.112811,-0.00406299 0.0322717,0.0300276 0.0340906,0.0805394 0.00406299,0.112811 -0.169984,0.18213 -0.303339,0.33337 -0.42926,0.490181 -0.126327,0.157311 -0.245591,0.32061 -0.387091,0.52648 -0.0207402,0.0301772 -0.0441142,0.0602008 -0.0796496,0.0851024 -0.0376693,0.0263976 -0.0843543,0.0437717 -0.146827,0.0437717l-0.188945 0 -0.188945 0c-0.0624724,0 -0.109157,-0.017374 -0.146827,-0.0437717 -0.0355354,-0.0249016 -0.0589094,-0.0549252 -0.0796496,-0.0851024 -0.1415,-0.20587 -0.260764,-0.369169 -0.387091,-0.52648 -0.125921,-0.156811 -0.259276,-0.308051 -0.42926,-0.490181 -0.0300276,-0.0322717 -0.0282087,-0.0827835 0.00406299,-0.112811 0.0322717,-0.0300276 0.0827835,-0.0282087 0.112811,0.00406299 0.172272,0.184579 0.307898,0.338449 0.436764,0.498929 0.128472,0.159984 0.249858,0.326201 0.393965,0.535858 0.0122638,0.0178425 0.025122,0.0349252 0.0396496,0.0451024 0.0123858,0.0086811 0.0296339,0.0143937 0.0555748,0.0143937l0.188945 0 0.188945 0c0.0259409,0 0.043189,-0.0057126 0.0555748,-0.0143937 0.0145276,-0.0101772 0.0273858,-0.0272598 0.0396496,-0.0451024 0.144106,-0.209657 0.265492,-0.375874 0.393965,-0.535858 0.128866,-0.16048 0.264492,-0.31435 0.436764,-0.498929z"/>
  <g id="_454424072">
   <path id="_454424456" class="fil0" d="M3.019 2.15542c0.0067874,-0.0286457 0.0355197,-0.0463701 0.0641654,-0.0395827 0.0286457,0.0067874 0.0463701,0.0355197 0.0395827,0.0641654 -0.0110433,0.0465039 -0.0121811,0.093378 -0.00287795,0.137047 0.00877165,0.0411732 0.0268898,0.0797362 0.0547835,0.112594 0.0189803,0.022437 0.016185,0.0560197 -0.00625197,0.075 -0.022437,0.0189803 -0.0560197,0.016185 -0.075,-0.00625197 -0.0396496,-0.0467047 -0.0653346,-0.101232 -0.0776969,-0.159256 -0.0126496,-0.059374 -0.0113189,-0.122193 0.00329528,-0.183717z"/>
   <path id="_454424024" class="fil0" d="M3.70391 2.18c-0.0067874,-0.0286457 0.010937,-0.057378 0.0395827,-0.0641654 0.0286457,-0.0067874 0.057378,0.010937 0.0641654,0.0395827 0.0146142,0.0615236 0.0159449,0.124343 0.00329528,0.183717 -0.0123622,0.0580236 -0.0380472,0.112551 -0.0776969,0.159256 -0.0189803,0.022437 -0.052563,0.0252323 -0.075,0.00625197 -0.022437,-0.0189803 -0.0252323,-0.052563 -0.00625197,-0.075 0.0278937,-0.0328583 0.0460118,-0.0714213 0.0547835,-0.112594 0.00930315,-0.0436693 0.00816535,-0.0905433 -0.00287795,-0.137047z"/>
  </g>
  <path class="fil2" d="M2.321 4.70731c0.058311,0.025126 0.110776,0.0719882 0.163236,0.118858 0.0539331,0.048185 0.107882,0.096378 0.143323,0.096378 0.0354449,0 0.0893819,-0.0481929 0.143315,-0.096374 0.0770276,-0.068815 0.154051,-0.13763 0.249571,-0.13763 0.0955197,0 0.172551,0.068815 0.249571,0.13763 0.0539331,0.048185 0.107874,0.096374 0.143315,0.096374 0.0354449,0 0.0893858,-0.048189 0.143319,-0.096374 0.0770197,-0.068815 0.154059,-0.13763 0.249571,-0.13763 0.0955197,0 0.172543,0.068815 0.249571,0.13763 0.0539331,0.0481811 0.10787,0.096374 0.143315,0.096374 0.0354409,0 0.0893898,-0.0481929 0.143323,-0.096378 0.0524567,-0.0468661 0.104929,-0.0937283 0.163232,-0.118854l-0.00793307 0.0259488c-0.0231535,0.0759567 -0.0457835,0.151965 -0.0677047,0.228276 -0.0709173,0.0628465 -0.143106,0.121008 -0.230917,0.121008 -0.0955197,0 -0.172547,-0.068815 -0.249567,-0.137626 -0.053937,-0.048189 -0.107878,-0.096378 -0.143319,-0.096378 -0.0354409,0 -0.0893858,0.0481929 -0.143319,0.096378 -0.0770197,0.068811 -0.154051,0.137626 -0.249571,0.137626 -0.0955157,0 -0.172547,-0.068815 -0.249567,-0.137626 -0.0539331,-0.048185 -0.107878,-0.096378 -0.143319,-0.096378 -0.0354409,0 -0.0893819,0.048189 -0.143319,0.096378 -0.0770197,0.068811 -0.154047,0.137626 -0.249567,0.137626 -0.087815,0 -0.160004,-0.0581614 -0.230925,-0.121012 -0.0217323,-0.0756417 -0.0441575,-0.150996 -0.0671024,-0.226307l-0.0085315 -0.0279173z"/>
  <path class="fil2" d="M2.42948 5.10609c0.0525197,0.025126 0.0997756,0.0719882 0.147024,0.118858 0.0485787,0.048185 0.0971693,0.096378 0.129091,0.096378 0.0319252,0 0.0805039,-0.0481929 0.129083,-0.096374 0.069374,-0.068815 0.138748,-0.13763 0.224783,-0.13763 0.0860315,0 0.155413,0.068815 0.224783,0.13763 0.0485787,0.048185 0.0971614,0.096374 0.129083,0.096374 0.0319252,0 0.0805079,-0.048189 0.129087,-0.096374 0.0693701,-0.068815 0.138756,-0.13763 0.224783,-0.13763 0.0860315,0 0.155406,0.068815 0.224783,0.13763 0.0485787,0.0481811 0.0971575,0.096374 0.129083,0.096374 0.0319213,0 0.0805118,-0.0481929 0.129091,-0.096378 0.0472441,-0.0468661 0.0945079,-0.0937283 0.14702,-0.118854l-0.00714567 0.0259488c-0.0208543,0.0759567 -0.0412362,0.151965 -0.0609803,0.228276 -0.063874,0.0628465 -0.128894,0.121008 -0.207984,0.121008 -0.0860315,0 -0.155409,-0.068815 -0.22478,-0.137626 -0.0485827,-0.048189 -0.0971654,-0.096378 -0.129087,-0.096378 -0.0319213,0 -0.0805079,0.0481929 -0.129087,0.096378 -0.0693701,0.068811 -0.138752,0.137626 -0.224783,0.137626 -0.0860315,0 -0.155409,-0.068815 -0.22478,-0.137626 -0.0485787,-0.048185 -0.0971654,-0.096378 -0.129087,-0.096378 -0.0319213,0 -0.0805039,0.048189 -0.129087,0.096378 -0.0693701,0.068811 -0.138748,0.137626 -0.22478,0.137626 -0.0790945,0 -0.144114,-0.0581614 -0.207992,-0.121012 -0.0195748,-0.0756417 -0.0397717,-0.150996 -0.060437,-0.226307l-0.00768504 -0.0279173z"/>
  <path class="fil2" d="M2.21437 4.36769c0.0815433,0.0116142 0.151854,0.0661102 0.222154,0.12061 0.0574843,0.044563 0.114976,0.0891339 0.156362,0.0891339 0.0413858,0 0.098874,-0.0445709 0.156358,-0.0891339 0.0792559,-0.0614409 0.158512,-0.122882 0.253866,-0.122882 0.0953543,0 0.174614,0.0614449 0.253862,0.122882 0.0574843,0.044563 0.114976,0.0891339 0.156354,0.0891339 0.0413819,0 0.098874,-0.0445709 0.156358,-0.0891339 0.079248,-0.061437 0.158508,-0.122882 0.253862,-0.122882 0.0953543,0 0.17461,0.0614409 0.253866,0.122882 0.0574843,0.044563 0.114972,0.0891339 0.156358,0.0891339 0.0413858,0 0.098878,-0.0445709 0.156362,-0.0891339 0.0702992,-0.0545 0.14061,-0.108996 0.22215,-0.12061l-0.00229528 0.00719291c-0.0207402,0.0650709 -0.0412559,0.12972 -0.0613543,0.19385 -0.0198425,0.0139094 -0.0404173,0.0298661 -0.0609961,0.0458189 -0.079252,0.061437 -0.158508,0.122882 -0.253866,0.122882 -0.0953543,0 -0.174614,-0.0614449 -0.253862,-0.122882 -0.0574882,-0.044563 -0.114984,-0.0891339 -0.156362,-0.0891339 -0.0413858,0 -0.098874,0.0445709 -0.156358,0.0891339 -0.079252,0.061437 -0.158508,0.122882 -0.253862,0.122882 -0.0953504,0 -0.174606,-0.0614449 -0.253858,-0.122882 -0.0574843,-0.044563 -0.114972,-0.0891339 -0.156358,-0.0891339 -0.041378,0 -0.098874,0.0445709 -0.156362,0.0891339 -0.079248,0.061437 -0.158508,0.122882 -0.253862,0.122882 -0.0953583,0 -0.174614,-0.0614449 -0.253866,-0.122882 -0.0205827,-0.0159528 -0.0411614,-0.0319094 -0.0610039,-0.0458228 -0.0201024,-0.0641339 -0.0406142,-0.12878 -0.0613504,-0.193846l-0.00229528 -0.00719291z"/>
  <path class="fil2" d="M2.11404 4.04404c0.0053622,-0.00113386 0.0109252,-0.00173622 0.016626,-0.00173622 0.0954764,0 0.176819,0.0542244 0.258154,0.108449 0.00145669,0.000972441 0.00286614,0.00198031 0.00424016,0.0030315 0.0596496,0.039748 0.118988,0.0785394 0.165165,0.0785394 0.0470433,0 0.108228,-0.0407874 0.169402,-0.0815709 0.0813346,-0.0542244 0.162677,-0.108449 0.258154,-0.108449 0.0954764,0 0.176819,0.0542244 0.258154,0.108449 0.0611772,0.0407835 0.122362,0.0815709 0.169398,0.0815709 0.0473504,0 0.108539,-0.0407874 0.169717,-0.0815709 0.000937008,-0.000622047 0.00188976,-0.00121654 0.00284252,-0.00179134 0.0805157,-0.0536654 0.161213,-0.106657 0.254996,-0.106657 0.0954764,0 0.176819,0.0542244 0.258154,0.108449 0.0611732,0.0407835 0.122358,0.0815709 0.169402,0.0815709 0.0472953,0 0.108398,-0.0406929 0.1695,-0.0814291l-9.44882e-005 -0.000141732c0.0813346,-0.0542244 0.162677,-0.108449 0.258154,-0.108449 0.00570079,0 0.0112598,0.000598425 0.016622,0.00173228 -0.0159803,0.0548976 -0.032689,0.109547 -0.0496496,0.163783 -0.0409961,0.0124764 -0.088689,0.0442638 -0.136378,0.0760591l-9.84252e-005 -0.000145669 -0.000212598 0.000145669c-0.0813346,0.0542205 -0.162681,0.108445 -0.257843,0.108445 -0.0954764,0 -0.176819,-0.0542244 -0.25815,-0.108445 -0.0611811,-0.0407874 -0.122366,-0.0815748 -0.169406,-0.0815748 -0.046748,0 -0.106508,0.0393386 -0.166469,0.0793071 -0.00105906,0.000775591 -0.0021378,0.00153543 -0.00324409,0.00226772 -0.0813346,0.0542205 -0.162681,0.108445 -0.257843,0.108445 -0.0954685,0 -0.176815,-0.0542244 -0.258146,-0.108445 -0.0611811,-0.0407874 -0.122366,-0.0815748 -0.169406,-0.0815748 -0.0470394,0 -0.108224,0.0407874 -0.169406,0.0815748 -0.0813307,0.0542205 -0.162673,0.108445 -0.25815,0.108445 -0.0935709,0 -0.173787,-0.0524252 -0.253768,-0.105724 -0.00148031,-0.000854331 -0.00294488,-0.00175984 -0.00438583,-0.00272047 -0.0476929,-0.0317953 -0.0953858,-0.0635866 -0.136382,-0.0760591 -0.0169567,-0.0542362 -0.0336693,-0.108878 -0.0496496,-0.16378z"/>
  <path class="fil2" d="M2.03213 3.71955c0.0930394,0.00440945 0.176024,0.0493465 0.258992,0.0942835 0.067748,0.0366929 0.135508,0.0733898 0.191492,0.0733898 0.0559961,0 0.123752,-0.0366969 0.191496,-0.0733898 0.0873661,-0.0473189 0.174744,-0.0946417 0.27387,-0.0946417 0.099126,0 0.186496,0.0473228 0.273866,0.0946417 0.0677441,0.0366929 0.135496,0.0733898 0.191484,0.0733898 0.0559882,0 0.123748,-0.0366969 0.191496,-0.0733898 0.0873583,-0.047315 0.174736,-0.0946417 0.273858,-0.0946417 0.099126,0 0.186504,0.0473228 0.27387,0.0946417 0.0677441,0.0366929 0.1355,0.0733898 0.191496,0.0733898 0.0559843,0 0.123744,-0.0366969 0.191492,-0.0733898 0.0829685,-0.044937 0.165953,-0.089874 0.258988,-0.0942835 -0.0114685,0.0562559 -0.0246654,0.112579 -0.0390906,0.168783 -0.0431969,0.0131654 -0.0903622,0.0387047 -0.137524,0.064248 -0.0873701,0.0473189 -0.174744,0.0946417 -0.273866,0.0946417 -0.0991299,0 -0.186508,-0.0473268 -0.273866,-0.0946417 -0.067748,-0.0366929 -0.135504,-0.0733898 -0.1915,-0.0733898 -0.0559882,0 -0.123744,0.0366969 -0.191488,0.0733898 -0.0873661,0.0473189 -0.174744,0.0946417 -0.273866,0.0946417 -0.099122,0 -0.186496,-0.0473228 -0.273858,-0.0946417 -0.067748,-0.0366929 -0.1355,-0.0733898 -0.191492,-0.0733898 -0.0559961,0 -0.123752,0.0366969 -0.1915,0.0733898 -0.0873583,0.047315 -0.174736,0.0946417 -0.273866,0.0946417 -0.099122,0 -0.186496,-0.0473228 -0.273866,-0.0946417 -0.0471614,-0.0255433 -0.0943268,-0.0510866 -0.137528,-0.064252 -0.0144252,-0.0562087 -0.027622,-0.112524 -0.0390906,-0.16878z"/>
  <path class="fil2" d="M1.98888 3.39795c0.0850591,0.00838583 0.163567,0.0436732 0.242063,0.0789606 0.0725315,0.0325984 0.145071,0.0652047 0.207752,0.0652047 0.062685,0 0.13522,-0.0326063 0.207744,-0.0652047 0.0899094,-0.0404173 0.179827,-0.0808307 0.279575,-0.0808307 0.099752,0 0.189673,0.0404173 0.279575,0.0808307 0.0725236,0.0325984 0.145059,0.0652047 0.207744,0.0652047 0.062685,0 0.13522,-0.0326063 0.207744,-0.0652047 0.0899016,-0.0404134 0.179823,-0.0808307 0.279575,-0.0808307 0.099748,0 0.189665,0.0404134 0.279575,0.0808307 0.0725236,0.0325984 0.145059,0.0652047 0.207744,0.0652047 0.0626811,0 0.13522,-0.0326063 0.207752,-0.0652047 0.0784961,-0.0352874 0.157004,-0.0705748 0.242063,-0.0789606 -0.00152756,0.0284213 -0.0036811,0.0563346 -0.00640945,0.0837165 -0.00268898,0.0269764 -0.00594882,0.0540197 -0.00972441,0.0811142 -0.0488622,0.0112047 -0.101488,0.0348543 -0.154106,0.0585079 -0.0899055,0.0404094 -0.179819,0.0808268 -0.279575,0.0808268 -0.099752,0 -0.189669,-0.0404173 -0.279571,-0.0808268 -0.0725315,-0.0326024 -0.145063,-0.0652087 -0.207748,-0.0652087 -0.0626811,0 -0.13522,0.0326063 -0.207748,0.0652087 -0.0899016,0.0404094 -0.179815,0.0808268 -0.279571,0.0808268 -0.0997559,0 -0.189669,-0.0404173 -0.279571,-0.0808268 -0.0725276,-0.0326024 -0.145067,-0.0652087 -0.207748,-0.0652087 -0.062685,0 -0.135217,0.0326063 -0.207748,0.0652087 -0.0899016,0.0404094 -0.179819,0.0808268 -0.279571,0.0808268 -0.0997559,0 -0.189669,-0.0404173 -0.279575,-0.0808268 -0.0526181,-0.0236535 -0.105244,-0.0473031 -0.154106,-0.0585079 -0.00377559,-0.0270945 -0.00703543,-0.0541378 -0.00972441,-0.0811142 -0.00272835,-0.0273819 -0.00488189,-0.0552953 -0.00640945,-0.0837165z"/>
  <g id="_454422368">
   <path id="_454422944" class="fil0" d="M3.20528 2.18144c-0.00252756,-0.0292244 0.0191102,-0.0549724 0.0483346,-0.0575 0.0292244,-0.00252756 0.0549724,0.0191102 0.0575,0.0483346 0.00984646,0.109421 0.0463268,0.210106 0.0895866,0.329524 0.0485984,0.134161 0.105429,0.291028 0.145402,0.513606 0.00517323,0.028878 -0.0140394,0.0564921 -0.0429173,0.0616654 -0.028878,0.00517323 -0.0564921,-0.0140394 -0.0616654,-0.0429173 -0.0382441,-0.212953 -0.0935354,-0.365571 -0.140819,-0.496102 -0.0457126,-0.126185 -0.0842559,-0.232579 -0.0954213,-0.35661z"/>
   <path id="_454422992" class="fil0" d="M3.77417 3.27071c0.018752,0.0225512 0.0156732,0.0560394 -0.00687795,0.0747913 -0.0225512,0.018752 -0.0560394,0.0156732 -0.0747913,-0.00687795l-0.191811 -0.230866 -0.167315 0.270646c-0.0154173,0.0249646 -0.0481614,0.0327087 -0.073126,0.0172913 -0.0249646,-0.0154173 -0.0327087,-0.0481614 -0.0172913,-0.073126l0.206165 -0.333488 1.1811e-005 7.87402e-006c0.00294488,-0.00476772 0.00669685,-0.00914567 0.0112402,-0.0129252 0.0225512,-0.018752 0.0560394,-0.0156732 0.0747913,0.00687795l0.239004 0.287669z"/>
  </g>
 </g>
 <rect class="fil3" width="6.82666" height="6.82666"/>
</svg>
